<svg width="853" height="325" viewBox="0 0 853 325" fill="none" xmlns="http://www.w3.org/2000/svg">
<path fill-rule="evenodd" clip-rule="evenodd" d="M15.2104 15.2104C0 30.4209 0 54.9017 0 103.863V220.71C0 269.671 0 294.152 15.2104 309.362C30.4209 324.573 54.9017 324.573 103.863 324.573H155.795C204.757 324.573 229.237 324.573 244.448 309.362C259.658 294.152 259.658 269.671 259.658 220.71V103.863C259.658 54.9017 259.658 30.4209 244.448 15.2104C229.237 0 204.757 0 155.795 0H103.863C54.9017 0 30.4209 0 15.2104 15.2104ZM129.828 298.604C187.19 298.604 233.691 237.571 233.691 162.283C233.691 86.9954 187.19 25.9625 129.828 25.9625C72.4658 25.9625 25.9646 86.9954 25.9646 162.283C25.9646 237.571 72.4658 298.604 129.828 298.604Z" fill="#3471E0"/>
<path d="M422.725 245.602C422.725 265.077 417.791 279.877 407.924 290.004C398.057 299.871 384.555 304.804 367.417 304.804C350.02 304.804 336.388 299.871 326.521 290.004C316.654 279.877 311.721 265.077 311.721 245.602V79.2912C311.721 59.8168 316.654 45.1461 326.521 35.2791C336.388 25.4121 350.02 20.4786 367.417 20.4786C384.814 20.4786 398.317 25.4121 407.924 35.2791C417.791 45.1461 422.725 59.8168 422.725 79.2912V245.602ZM377.155 72.6699C377.155 62.2836 373.909 57.0904 367.417 57.0904C360.926 57.0904 357.68 62.2836 357.68 72.6699V251.834C357.68 262.48 360.926 267.803 367.417 267.803C373.909 267.803 377.155 262.48 377.155 251.834V72.6699ZM489.467 26.3209C506.864 26.3209 520.756 31.6439 531.142 42.2899C541.788 52.6762 547.111 67.9961 547.111 88.2494V123.693C547.111 135.377 544.644 145.115 539.711 152.904C535.037 160.694 528.156 166.147 519.068 169.263V170.821C528.156 173.677 535.037 179.13 539.711 187.179C544.644 194.969 547.111 204.706 547.111 216.391V260.403C547.111 268.193 547.241 274.814 547.501 280.267C548.02 285.46 548.929 291.172 550.227 297.404V298.962H504.267C502.969 291.951 502.06 285.72 501.541 280.267C501.281 274.814 501.152 268.193 501.152 260.403V204.317C501.152 193.93 497.257 188.737 489.467 188.737H481.677V298.962H436.107V26.3209H489.467ZM481.677 151.736H489.467C497.257 151.736 501.152 146.413 501.152 135.767V78.5122C501.152 68.1259 497.257 62.9328 489.467 62.9328H481.677V151.736ZM669.94 110.061C669.94 135.507 660.722 151.476 642.286 157.968V159.136C651.634 161.992 658.774 167.575 663.708 175.884C668.641 184.193 671.108 194.58 671.108 207.043V239.76C671.108 260.013 665.785 275.074 655.139 284.941C644.753 294.548 630.861 299.352 613.464 299.352H560.104V26.3209H613.074C630.212 26.3209 643.974 31.1246 654.36 40.732C664.746 50.0797 669.94 64.8802 669.94 85.1335V110.061ZM624.37 78.9017C624.37 68.5154 620.605 63.3222 613.074 63.3222H605.674V140.441H612.685C617.099 140.441 620.085 139.142 621.643 136.546C623.461 133.949 624.37 129.275 624.37 122.524V78.9017ZM625.149 194.58C625.149 182.895 620.994 177.053 612.685 177.053H605.674V262.35H613.464C621.254 262.35 625.149 257.027 625.149 246.381V194.58ZM728.576 298.962H683.006V26.3209H728.576V298.962ZM846.624 62.9328H817.412V298.962H771.842V62.9328H742.631V26.3209H846.624V62.9328Z" fill="#3471E0"/>
</svg>
